<mxfile host="app.diagrams.net" modified="2020-06-08T01:44:21.168Z" agent="5.0 (Windows NT 10.0; Win64; x64) AppleWebKit/537.36 (KHTML, like Gecko) Chrome/83.0.4103.61 Safari/537.36" etag="Sd5ZmFfM7oJeT1vNv-zO" version="13.1.14" type="github">
  <diagram id="PNmXfZRkviSsAnXEH6vr" name="Page-1">
    <mxGraphModel dx="868" dy="1582" grid="1" gridSize="10" guides="1" tooltips="1" connect="1" arrows="1" fold="1" page="1" pageScale="1" pageWidth="850" pageHeight="1100" math="0" shadow="0">
      <root>
        <mxCell id="0" />
        <mxCell id="1" parent="0" />
        <mxCell id="tazjQRN2mXjaUuruAK_x-1" value="Dukander" style="shape=umlActor;verticalLabelPosition=bottom;labelBackgroundColor=#ffffff;verticalAlign=top;html=1;outlineConnect=0;" vertex="1" parent="1">
          <mxGeometry x="30" y="20" width="30" height="60" as="geometry" />
        </mxCell>
        <mxCell id="tazjQRN2mXjaUuruAK_x-2" value="" style="html=1;points=[];perimeter=orthogonalPerimeter;" vertex="1" parent="1">
          <mxGeometry x="200" y="20" width="10" height="80" as="geometry" />
        </mxCell>
        <mxCell id="tazjQRN2mXjaUuruAK_x-3" value="dispatch" style="html=1;verticalAlign=bottom;endArrow=block;entryX=0;entryY=0;" edge="1" target="tazjQRN2mXjaUuruAK_x-2" parent="1">
          <mxGeometry relative="1" as="geometry">
            <mxPoint x="130" y="20" as="sourcePoint" />
          </mxGeometry>
        </mxCell>
        <mxCell id="tazjQRN2mXjaUuruAK_x-4" value="return" style="html=1;verticalAlign=bottom;endArrow=open;dashed=1;endSize=8;exitX=0;exitY=0.95;" edge="1" source="tazjQRN2mXjaUuruAK_x-2" parent="1">
          <mxGeometry relative="1" as="geometry">
            <mxPoint x="130" y="96" as="targetPoint" />
          </mxGeometry>
        </mxCell>
        <mxCell id="tazjQRN2mXjaUuruAK_x-5" value="{&quot;item_name&quot;:&lt;br&gt;&quot;price&quot;:&lt;br&gt;&quot;note&quot;:}" style="text;html=1;align=center;verticalAlign=middle;resizable=0;points=[];autosize=1;" vertex="1" parent="1">
          <mxGeometry x="110" y="20" width="90" height="50" as="geometry" />
        </mxCell>
        <mxCell id="tazjQRN2mXjaUuruAK_x-6" value="&lt;b&gt;redirected to&lt;/b&gt; /api/v1/cart/{id}/" style="text;html=1;align=center;verticalAlign=middle;resizable=0;points=[];autosize=1;" vertex="1" parent="1">
          <mxGeometry x="50" y="110" width="170" height="20" as="geometry" />
        </mxCell>
        <mxCell id="tazjQRN2mXjaUuruAK_x-8" value="" style="endArrow=none;dashed=1;html=1;" edge="1" parent="1">
          <mxGeometry width="50" height="50" relative="1" as="geometry">
            <mxPoint x="280" y="440" as="sourcePoint" />
            <mxPoint x="280" y="-10" as="targetPoint" />
          </mxGeometry>
        </mxCell>
        <mxCell id="tazjQRN2mXjaUuruAK_x-9" value="" style="endArrow=none;dashed=1;html=1;" edge="1" parent="1">
          <mxGeometry width="50" height="50" relative="1" as="geometry">
            <mxPoint x="10" y="180" as="sourcePoint" />
            <mxPoint x="760" y="180" as="targetPoint" />
          </mxGeometry>
        </mxCell>
        <mxCell id="tazjQRN2mXjaUuruAK_x-10" value="" style="endArrow=classic;html=1;exitX=1;exitY=0.488;exitDx=0;exitDy=0;exitPerimeter=0;entryX=0.533;entryY=0.633;entryDx=0;entryDy=0;entryPerimeter=0;" edge="1" parent="1" source="tazjQRN2mXjaUuruAK_x-2" target="tazjQRN2mXjaUuruAK_x-11">
          <mxGeometry width="50" height="50" relative="1" as="geometry">
            <mxPoint x="250" y="90" as="sourcePoint" />
            <mxPoint x="410" y="55" as="targetPoint" />
          </mxGeometry>
        </mxCell>
        <mxCell id="tazjQRN2mXjaUuruAK_x-11" value="Dukander" style="shape=umlActor;verticalLabelPosition=bottom;labelBackgroundColor=#ffffff;verticalAlign=top;html=1;outlineConnect=0;" vertex="1" parent="1">
          <mxGeometry x="330" y="20" width="30" height="60" as="geometry" />
        </mxCell>
        <mxCell id="tazjQRN2mXjaUuruAK_x-16" value="Request" style="text;html=1;align=center;verticalAlign=middle;resizable=0;points=[];autosize=1;" vertex="1" parent="1">
          <mxGeometry x="30" y="198" width="60" height="20" as="geometry" />
        </mxCell>
        <mxCell id="tazjQRN2mXjaUuruAK_x-17" value="&lt;p style=&quot;margin: 0px ; margin-top: 4px ; text-align: center ; text-decoration: underline&quot;&gt;&lt;b&gt;Object:JSON&lt;/b&gt;&lt;/p&gt;&lt;hr&gt;&lt;p style=&quot;margin: 0px ; margin-left: 8px&quot;&gt;Item name = &quot;String&quot;&lt;/p&gt;&lt;p style=&quot;margin: 0px ; margin-left: 8px&quot;&gt;Price = Integer&lt;br&gt;Note = &quot;String&quot;&lt;/p&gt;" style="verticalAlign=top;align=left;overflow=fill;fontSize=12;fontFamily=Helvetica;html=1;" vertex="1" parent="1">
          <mxGeometry x="100" y="210" width="160" height="80" as="geometry" />
        </mxCell>
        <mxCell id="tazjQRN2mXjaUuruAK_x-18" value="" style="endArrow=classic;html=1;entryX=0;entryY=0.5;entryDx=0;entryDy=0;exitX=0.65;exitY=0.95;exitDx=0;exitDy=0;exitPerimeter=0;" edge="1" parent="1" source="tazjQRN2mXjaUuruAK_x-16" target="tazjQRN2mXjaUuruAK_x-17">
          <mxGeometry width="50" height="50" relative="1" as="geometry">
            <mxPoint x="30" y="280" as="sourcePoint" />
            <mxPoint x="80" y="230" as="targetPoint" />
            <Array as="points">
              <mxPoint x="69" y="250" />
            </Array>
          </mxGeometry>
        </mxCell>
        <mxCell id="tazjQRN2mXjaUuruAK_x-19" value="&lt;p style=&quot;margin: 0px ; margin-top: 4px ; text-align: center ; text-decoration: underline&quot;&gt;&lt;b&gt;Object:JSON&lt;/b&gt;&lt;/p&gt;&lt;hr&gt;&lt;p style=&quot;margin: 0px ; margin-left: 8px&quot;&gt;Total_Price = integerField&lt;br&gt;Note = JSONField{&quot;item_id&quot;:&lt;/p&gt;&lt;p style=&quot;margin: 0px ; margin-left: 8px&quot;&gt;&amp;nbsp; &amp;nbsp; &amp;nbsp; &amp;nbsp; &amp;nbsp; &amp;nbsp; &amp;nbsp; &amp;nbsp; &amp;nbsp; &amp;nbsp; &amp;nbsp; &amp;nbsp; &amp;nbsp; &amp;nbsp; &amp;nbsp; &amp;nbsp;&quot;message&quot;&amp;nbsp; &amp;nbsp; &amp;nbsp; }&lt;/p&gt;&lt;p style=&quot;margin: 0px ; margin-left: 8px&quot;&gt;Cart_id = AutoField&lt;/p&gt;" style="verticalAlign=top;align=left;overflow=fill;fontSize=12;fontFamily=Helvetica;html=1;" vertex="1" parent="1">
          <mxGeometry x="90" y="340" width="170" height="100" as="geometry" />
        </mxCell>
        <mxCell id="tazjQRN2mXjaUuruAK_x-20" value="Response" style="text;html=1;align=center;verticalAlign=middle;resizable=0;points=[];autosize=1;" vertex="1" parent="1">
          <mxGeometry x="25" y="310" width="70" height="20" as="geometry" />
        </mxCell>
        <mxCell id="tazjQRN2mXjaUuruAK_x-22" value="" style="endArrow=classic;html=1;entryX=0;entryY=0.5;entryDx=0;entryDy=0;exitX=0.5;exitY=1.1;exitDx=0;exitDy=0;exitPerimeter=0;" edge="1" parent="1" source="tazjQRN2mXjaUuruAK_x-20" target="tazjQRN2mXjaUuruAK_x-19">
          <mxGeometry width="50" height="50" relative="1" as="geometry">
            <mxPoint x="40" y="380" as="sourcePoint" />
            <mxPoint x="90" y="330" as="targetPoint" />
            <Array as="points">
              <mxPoint x="60" y="390" />
            </Array>
          </mxGeometry>
        </mxCell>
        <mxCell id="tazjQRN2mXjaUuruAK_x-23" value="GET /api/v1/cart/{id}/" style="text;html=1;align=center;verticalAlign=middle;resizable=0;points=[];autosize=1;" vertex="1" parent="1">
          <mxGeometry x="350" y="120" width="130" height="20" as="geometry" />
        </mxCell>
        <mxCell id="tazjQRN2mXjaUuruAK_x-24" value="EDIT /api/v1/cart/{id}/" style="text;html=1;align=center;verticalAlign=middle;resizable=0;points=[];autosize=1;" vertex="1" parent="1">
          <mxGeometry x="350" y="140" width="130" height="20" as="geometry" />
        </mxCell>
        <mxCell id="tazjQRN2mXjaUuruAK_x-29" value="DELETE api/v1/cart/{id}/" style="text;html=1;align=center;verticalAlign=middle;resizable=0;points=[];autosize=1;" vertex="1" parent="1">
          <mxGeometry x="345" y="160" width="140" height="20" as="geometry" />
        </mxCell>
        <mxCell id="tazjQRN2mXjaUuruAK_x-30" value="POST /api/v1/cart/" style="text;html=1;align=center;verticalAlign=middle;resizable=0;points=[];autosize=1;" vertex="1" parent="1">
          <mxGeometry x="110" y="150" width="110" height="20" as="geometry" />
        </mxCell>
        <mxCell id="tazjQRN2mXjaUuruAK_x-33" value="" style="html=1;points=[];perimeter=orthogonalPerimeter;" vertex="1" parent="1">
          <mxGeometry x="460" y="20" width="10" height="80" as="geometry" />
        </mxCell>
        <mxCell id="tazjQRN2mXjaUuruAK_x-34" value="dispatch" style="html=1;verticalAlign=bottom;endArrow=block;entryX=0;entryY=0;" edge="1" target="tazjQRN2mXjaUuruAK_x-33" parent="1">
          <mxGeometry relative="1" as="geometry">
            <mxPoint x="390" y="20" as="sourcePoint" />
          </mxGeometry>
        </mxCell>
        <mxCell id="tazjQRN2mXjaUuruAK_x-35" value="return" style="html=1;verticalAlign=bottom;endArrow=open;dashed=1;endSize=8;exitX=0;exitY=0.95;" edge="1" source="tazjQRN2mXjaUuruAK_x-33" parent="1">
          <mxGeometry relative="1" as="geometry">
            <mxPoint x="390" y="96" as="targetPoint" />
          </mxGeometry>
        </mxCell>
        <mxCell id="tazjQRN2mXjaUuruAK_x-36" value="" style="endArrow=none;dashed=1;html=1;" edge="1" parent="1">
          <mxGeometry width="50" height="50" relative="1" as="geometry">
            <mxPoint x="520" y="440" as="sourcePoint" />
            <mxPoint x="520" as="targetPoint" />
          </mxGeometry>
        </mxCell>
        <mxCell id="tazjQRN2mXjaUuruAK_x-37" value="&lt;p style=&quot;margin: 0px ; margin-top: 4px ; text-align: center ; text-decoration: underline&quot;&gt;&lt;b&gt;Object:JSON&lt;/b&gt;&lt;/p&gt;&lt;hr&gt;&lt;p style=&quot;margin: 0px ; margin-left: 8px&quot;&gt;Item Name = &quot;string&quot;&lt;br&gt;Price = integer&lt;br&gt;Note = String&lt;/p&gt;" style="verticalAlign=top;align=left;overflow=fill;fontSize=12;fontFamily=Helvetica;html=1;" vertex="1" parent="1">
          <mxGeometry x="335" y="218" width="160" height="80" as="geometry" />
        </mxCell>
        <mxCell id="tazjQRN2mXjaUuruAK_x-38" value="Request" style="text;html=1;align=center;verticalAlign=middle;resizable=0;points=[];autosize=1;" vertex="1" parent="1">
          <mxGeometry x="285" y="198" width="60" height="20" as="geometry" />
        </mxCell>
        <mxCell id="tazjQRN2mXjaUuruAK_x-39" value="" style="endArrow=classic;html=1;entryX=0;entryY=0.5;entryDx=0;entryDy=0;" edge="1" parent="1" target="tazjQRN2mXjaUuruAK_x-37">
          <mxGeometry width="50" height="50" relative="1" as="geometry">
            <mxPoint x="310" y="222" as="sourcePoint" />
            <mxPoint x="340" y="230" as="targetPoint" />
            <Array as="points">
              <mxPoint x="310" y="258" />
            </Array>
          </mxGeometry>
        </mxCell>
        <mxCell id="tazjQRN2mXjaUuruAK_x-40" value="&lt;p style=&quot;margin: 0px ; margin-top: 4px ; text-align: center ; text-decoration: underline&quot;&gt;&lt;b&gt;Object:JSON&lt;/b&gt;&lt;/p&gt;&lt;hr&gt;&lt;p style=&quot;margin: 0px ; margin-left: 8px&quot;&gt;Total_Price = IntegerField&lt;br&gt;Note = JSONField{&quot;item_id&quot;:&lt;/p&gt;&lt;p style=&quot;margin: 0px ; margin-left: 8px&quot;&gt;&amp;nbsp; &amp;nbsp; &amp;nbsp; &amp;nbsp; &amp;nbsp; &amp;nbsp; &amp;nbsp; &amp;nbsp; &amp;nbsp; &amp;nbsp; &amp;nbsp; &amp;nbsp; &amp;nbsp; &amp;nbsp; &amp;nbsp; &amp;nbsp;&quot;message:&quot;}&lt;br&gt;Cart_id = AutoField&lt;/p&gt;" style="verticalAlign=top;align=left;overflow=fill;fontSize=12;fontFamily=Helvetica;html=1;" vertex="1" parent="1">
          <mxGeometry x="325" y="340" width="175" height="90" as="geometry" />
        </mxCell>
        <mxCell id="tazjQRN2mXjaUuruAK_x-41" value="Response" style="text;html=1;align=center;verticalAlign=middle;resizable=0;points=[];autosize=1;" vertex="1" parent="1">
          <mxGeometry x="285" y="320" width="70" height="20" as="geometry" />
        </mxCell>
        <mxCell id="tazjQRN2mXjaUuruAK_x-42" value="" style="endArrow=classic;html=1;entryX=0;entryY=0.5;entryDx=0;entryDy=0;exitX=0.3;exitY=1.05;exitDx=0;exitDy=0;exitPerimeter=0;" edge="1" parent="1" source="tazjQRN2mXjaUuruAK_x-41" target="tazjQRN2mXjaUuruAK_x-40">
          <mxGeometry width="50" height="50" relative="1" as="geometry">
            <mxPoint x="280" y="390" as="sourcePoint" />
            <mxPoint x="330" y="340" as="targetPoint" />
            <Array as="points">
              <mxPoint x="306" y="385" />
            </Array>
          </mxGeometry>
        </mxCell>
        <mxCell id="tazjQRN2mXjaUuruAK_x-43" value="" style="endArrow=classic;html=1;exitX=1.3;exitY=0.488;exitDx=0;exitDy=0;exitPerimeter=0;entryX=0.5;entryY=0.5;entryDx=0;entryDy=0;entryPerimeter=0;" edge="1" parent="1" source="tazjQRN2mXjaUuruAK_x-33" target="tazjQRN2mXjaUuruAK_x-44">
          <mxGeometry width="50" height="50" relative="1" as="geometry">
            <mxPoint x="490" y="90" as="sourcePoint" />
            <mxPoint x="560" y="59" as="targetPoint" />
          </mxGeometry>
        </mxCell>
        <mxCell id="tazjQRN2mXjaUuruAK_x-44" value="Dukander" style="shape=umlActor;verticalLabelPosition=bottom;labelBackgroundColor=#ffffff;verticalAlign=top;html=1;outlineConnect=0;" vertex="1" parent="1">
          <mxGeometry x="570" y="30" width="30" height="60" as="geometry" />
        </mxCell>
        <mxCell id="tazjQRN2mXjaUuruAK_x-45" value="" style="html=1;points=[];perimeter=orthogonalPerimeter;" vertex="1" parent="1">
          <mxGeometry x="720" y="30" width="10" height="80" as="geometry" />
        </mxCell>
        <mxCell id="tazjQRN2mXjaUuruAK_x-46" value="dispatch" style="html=1;verticalAlign=bottom;endArrow=block;entryX=0;entryY=0;" edge="1" target="tazjQRN2mXjaUuruAK_x-45" parent="1">
          <mxGeometry relative="1" as="geometry">
            <mxPoint x="650" y="30" as="sourcePoint" />
          </mxGeometry>
        </mxCell>
        <mxCell id="tazjQRN2mXjaUuruAK_x-47" value="return" style="html=1;verticalAlign=bottom;endArrow=open;dashed=1;endSize=8;exitX=0;exitY=0.95;" edge="1" source="tazjQRN2mXjaUuruAK_x-45" parent="1">
          <mxGeometry relative="1" as="geometry">
            <mxPoint x="650" y="106" as="targetPoint" />
          </mxGeometry>
        </mxCell>
        <mxCell id="tazjQRN2mXjaUuruAK_x-48" value="GET /api/v1/transaction/{id}" style="text;html=1;align=center;verticalAlign=middle;resizable=0;points=[];autosize=1;" vertex="1" parent="1">
          <mxGeometry x="576" y="124" width="160" height="20" as="geometry" />
        </mxCell>
        <mxCell id="tazjQRN2mXjaUuruAK_x-49" value="&lt;p style=&quot;margin: 0px ; margin-top: 4px ; text-align: center ; text-decoration: underline&quot;&gt;&lt;b&gt;Object:JSON&lt;/b&gt;&lt;/p&gt;&lt;hr&gt;&lt;p style=&quot;margin: 0px ; margin-left: 8px&quot;&gt;Cart_id = AutoField&lt;br&gt;Customer_name = String&lt;/p&gt;" style="verticalAlign=top;align=left;overflow=fill;fontSize=12;fontFamily=Helvetica;html=1;" vertex="1" parent="1">
          <mxGeometry x="587" y="218" width="160" height="82" as="geometry" />
        </mxCell>
        <mxCell id="tazjQRN2mXjaUuruAK_x-50" value="Request" style="text;html=1;align=center;verticalAlign=middle;resizable=0;points=[];autosize=1;" vertex="1" parent="1">
          <mxGeometry x="527" y="198" width="60" height="20" as="geometry" />
        </mxCell>
        <mxCell id="tazjQRN2mXjaUuruAK_x-51" value="" style="endArrow=classic;html=1;exitX=0.55;exitY=1.1;exitDx=0;exitDy=0;exitPerimeter=0;" edge="1" parent="1" source="tazjQRN2mXjaUuruAK_x-50">
          <mxGeometry width="50" height="50" relative="1" as="geometry">
            <mxPoint x="530" y="270" as="sourcePoint" />
            <mxPoint x="587" y="259" as="targetPoint" />
            <Array as="points">
              <mxPoint x="560" y="259" />
            </Array>
          </mxGeometry>
        </mxCell>
        <mxCell id="tazjQRN2mXjaUuruAK_x-52" value="&lt;p style=&quot;margin: 0px ; margin-top: 4px ; text-align: center ; text-decoration: underline&quot;&gt;&lt;b&gt;Object:JSON&lt;/b&gt;&lt;/p&gt;&lt;hr&gt;&lt;p style=&quot;margin: 0px ; margin-left: 8px&quot;&gt;transaction_id = AutoField&lt;br&gt;&lt;/p&gt;" style="verticalAlign=top;align=left;overflow=fill;fontSize=12;fontFamily=Helvetica;html=1;" vertex="1" parent="1">
          <mxGeometry x="590" y="350" width="160" height="50" as="geometry" />
        </mxCell>
        <mxCell id="tazjQRN2mXjaUuruAK_x-53" value="Response" style="text;html=1;align=center;verticalAlign=middle;resizable=0;points=[];autosize=1;" vertex="1" parent="1">
          <mxGeometry x="530" y="313" width="70" height="20" as="geometry" />
        </mxCell>
        <mxCell id="tazjQRN2mXjaUuruAK_x-54" value="" style="endArrow=classic;html=1;entryX=0;entryY=0.5;entryDx=0;entryDy=0;exitX=0.4;exitY=1.05;exitDx=0;exitDy=0;exitPerimeter=0;" edge="1" parent="1" source="tazjQRN2mXjaUuruAK_x-53" target="tazjQRN2mXjaUuruAK_x-52">
          <mxGeometry width="50" height="50" relative="1" as="geometry">
            <mxPoint x="530" y="390" as="sourcePoint" />
            <mxPoint x="580" y="340" as="targetPoint" />
            <Array as="points">
              <mxPoint x="558" y="375" />
            </Array>
          </mxGeometry>
        </mxCell>
      </root>
    </mxGraphModel>
  </diagram>
</mxfile>
